<svg id="Camada_1" data-name="Camada 1" xmlns="http://www.w3.org/2000/svg" viewBox="0 0 343.58 61.17"><defs><style>.cls-1,.cls-3{font-size:30px;}.cls-1,.cls-3,.cls-4,.cls-5,.cls-6{fill:#1d1d1b;font-family:Helvetica-Bold, Helvetica;font-weight:700;}.cls-2,.cls-3{letter-spacing:-0.02em;}.cls-4,.cls-5,.cls-6{font-size:7px;}.cls-5{letter-spacing:-0.04em;}.cls-6{letter-spacing:-0.04em;}</style></defs><title>logotipo portfolio</title><text class="cls-1" transform="translate(0 28.36)"><tspan class="cls-2">P</tspan><tspan x="19.48" y="0"> </tspan></text><text class="cls-1" transform="translate(41.79 28.36)">O</text><text class="cls-1" transform="translate(87.07 28.36)">R</text><text class="cls-1" transform="translate(128.49 28.36)">T</text><text class="cls-1" transform="translate(169 28.36)">F</text><text x="-95" y="-229.94"/><text class="cls-1" transform="translate(207.59 28.36)">Ó</text><text class="cls-3" transform="translate(251.02 28.36)">L</text><text class="cls-1" transform="translate(291.21 28.36)">I</text><text class="cls-1" transform="translate(320.25 28.36)">O</text><text class="cls-4" transform="translate(0 57.74)">R</text><text class="cls-4" transform="translate(17.12 57.74)">I</text><text class="cls-4" transform="translate(31.56 57.73)">T</text><text class="cls-5" transform="translate(48.22 57.73)">A</text><text class="cls-4" transform="translate(238.24 57.73)">-</text><text class="cls-4" transform="translate(74.06 57.73)">C</text><text class="cls-5" transform="translate(90.68 57.73)">A</text><text class="cls-4" transform="translate(109.31 57.73)">R</text><text class="cls-4" transform="translate(128.32 57.73)">Q</text><text class="cls-4" transform="translate(146.81 57.73)">U</text><text class="cls-4" transform="translate(164.83 57.73)">E</text><text class="cls-4" transform="translate(183.2 57.73)">I</text><text class="cls-4" transform="translate(199.2 57.73)">J</text><text class="cls-6" transform="translate(216.18 57.73)">A</text><text class="cls-4" transform="translate(259.12 57.73)">D</text><text class="cls-4" transform="translate(276.08 57.74)">E</text><text class="cls-4" transform="translate(292.39 57.73)">S</text><text class="cls-4" transform="translate(308.81 57.73)">I</text><text class="cls-4" transform="matrix(1, -0.03, 0.03, 1, 321.64, 57.8)">G</text><text class="cls-4" transform="translate(338.09 57.73)">N</text></svg>